<svg width="12" height="13" viewBox="0 0 12 13" fill="none" xmlns="http://www.w3.org/2000/svg">
<g opacity="0.6">
<path d="M5.60711 10.6718L10.0895 6.78239C10.1301 6.74724 10.1626 6.70377 10.1849 6.65494C10.2072 6.60611 10.2187 6.55306 10.2187 6.49939C10.2187 6.44571 10.2072 6.39266 10.1849 6.34383C10.1626 6.295 10.1301 6.25154 10.0895 6.21638L5.60711 2.3281C5.5936 2.31635 5.577 2.30873 5.55928 2.30615C5.54156 2.30357 5.52348 2.30614 5.50718 2.31355C5.49088 2.32096 5.47705 2.33289 5.46734 2.34794C5.45764 2.36299 5.45246 2.38051 5.45243 2.39841L5.45243 3.34763C5.45243 3.40154 5.47586 3.4531 5.51688 3.48943L8.47352 6.05466L1.87469 6.05466C1.82313 6.05466 1.78094 6.09685 1.78094 6.14841L1.78094 6.85153C1.78094 6.9031 1.82313 6.94528 1.87469 6.94528L8.47352 6.94529L5.51688 9.51052C5.47586 9.54568 5.45243 9.59724 5.45243 9.65232L5.45243 10.6015C5.45243 10.6812 5.54618 10.7246 5.60711 10.6718Z" fill="#333333"/>
</g>
</svg>
