<svg width="22" height="22" viewBox="0 0 22 22" fill="none" xmlns="http://www.w3.org/2000/svg">
<path d="M16.5003 5.49992H14.667C14.667 3.47409 13.0262 1.83325 11.0003 1.83325C8.97449 1.83325 7.33366 3.47409 7.33366 5.49992H5.50033C4.49199 5.49992 3.66699 6.32492 3.66699 7.33325V18.3333C3.66699 19.3416 4.49199 20.1666 5.50033 20.1666H16.5003C17.5087 20.1666 18.3337 19.3416 18.3337 18.3333V7.33325C18.3337 6.32492 17.5087 5.49992 16.5003 5.49992ZM11.0003 3.66659C12.0087 3.66659 12.8337 4.49159 12.8337 5.49992H9.16699C9.16699 4.49159 9.99199 3.66659 11.0003 3.66659ZM16.5003 18.3333H5.50033V7.33325H7.33366V9.16659C7.33366 9.67075 7.74616 10.0833 8.25033 10.0833C8.75449 10.0833 9.16699 9.67075 9.16699 9.16659V7.33325H12.8337V9.16659C12.8337 9.67075 13.2462 10.0833 13.7503 10.0833C14.2545 10.0833 14.667 9.67075 14.667 9.16659V7.33325H16.5003V18.3333Z" fill="#333333"/>
</svg>
