<svg width="38" height="38" viewBox="0 0 38 38" fill="none" xmlns="http://www.w3.org/2000/svg">
<circle cx="19" cy="19" r="19" fill="white"/>
<circle cx="19" cy="19" r="18.5" stroke="#828282" stroke-opacity="0.2"/>
<path d="M27.2012 15.6129C27.192 14.9187 27.062 14.2313 26.8172 13.5816C26.6048 13.0336 26.2805 12.5359 25.8649 12.1203C25.4493 11.7047 24.9516 11.3804 24.4036 11.168C23.7622 10.9273 23.0847 10.7971 22.3997 10.783C21.5179 10.7436 21.2383 10.7326 18.9998 10.7326C16.7613 10.7326 16.4744 10.7326 15.599 10.783C14.9144 10.7972 14.2371 10.9274 13.5961 11.168C13.048 11.3802 12.5502 11.7045 12.1346 12.1201C11.719 12.5357 11.3947 13.0335 11.1825 13.5816C10.9412 14.2225 10.8113 14.8999 10.7984 15.5845C10.759 16.4673 10.7471 16.7469 10.7471 18.9854C10.7471 21.2239 10.7471 21.5099 10.7984 22.3862C10.8122 23.0719 10.9414 23.7484 11.1825 24.3909C11.395 24.9389 11.7196 25.4365 12.1353 25.8519C12.551 26.2673 13.0489 26.5915 13.597 26.8036C14.2363 27.054 14.9137 27.1935 15.5999 27.2161C16.4827 27.2555 16.7622 27.2674 19.0007 27.2674C21.2392 27.2674 21.5262 27.2674 22.4016 27.2161C23.0865 27.2026 23.7641 27.0727 24.4054 26.832C24.9533 26.6194 25.4509 26.295 25.8664 25.8795C26.282 25.4639 26.6064 24.9663 26.819 24.4184C27.0601 23.7768 27.1893 23.1003 27.2031 22.4137C27.2425 21.5319 27.2544 21.2523 27.2544 19.0129C27.2526 16.7744 27.2526 16.4902 27.2012 15.6129ZM18.9943 23.2185C16.6532 23.2185 14.7566 21.3219 14.7566 18.9808C14.7566 16.6396 16.6532 14.743 18.9943 14.743C20.1182 14.743 21.1961 15.1895 21.9909 15.9842C22.7856 16.779 23.2321 17.8569 23.2321 18.9808C23.2321 20.1047 22.7856 21.1826 21.9909 21.9773C21.1961 22.772 20.1182 23.2185 18.9943 23.2185ZM23.4007 15.5744C22.8535 15.5744 22.4126 15.1326 22.4126 14.5863C22.4126 14.4566 22.4381 14.3281 22.4878 14.2083C22.5374 14.0885 22.6101 13.9796 22.7019 13.8879C22.7936 13.7961 22.9025 13.7234 23.0223 13.6737C23.1421 13.6241 23.2706 13.5986 23.4003 13.5986C23.53 13.5986 23.6584 13.6241 23.7783 13.6737C23.8981 13.7234 24.007 13.7961 24.0987 13.8879C24.1904 13.9796 24.2632 14.0885 24.3128 14.2083C24.3624 14.3281 24.388 14.4566 24.388 14.5863C24.388 15.1326 23.9462 15.5744 23.4007 15.5744Z" fill="#4F4F4F"/>
<path d="M18.994 21.7335C20.5143 21.7335 21.7467 20.501 21.7467 18.9807C21.7467 17.4604 20.5143 16.228 18.994 16.228C17.4737 16.228 16.2412 17.4604 16.2412 18.9807C16.2412 20.501 17.4737 21.7335 18.994 21.7335Z" fill="#4F4F4F"/>
</svg>
