<svg width="70" height="70" viewBox="0 0 70 70" fill="none" xmlns="http://www.w3.org/2000/svg">
<g opacity="0.5">
<circle opacity="0.4" cx="35" cy="35" r="25" transform="rotate(-180 35 35)" fill="#F2F2F2"/>
<path d="M35.5238 29.4375L29.5473 34.6234C29.4932 34.6703 29.4498 34.7282 29.4201 34.7933C29.3904 34.8584 29.375 34.9292 29.375 35.0007C29.375 35.0723 29.3904 35.143 29.4201 35.2081C29.4498 35.2732 29.4932 35.3312 29.5473 35.3781L35.5238 40.5625C35.5419 40.5781 35.564 40.5883 35.5876 40.5917C35.6112 40.5952 35.6354 40.5917 35.6571 40.5819C35.6788 40.572 35.6973 40.5561 35.7102 40.536C35.7232 40.5159 35.7301 40.4926 35.7301 40.4687L35.7301 39.2031C35.7301 39.1312 35.6988 39.0625 35.6442 39.014L31.702 35.5937L40.5004 35.5937C40.5692 35.5937 40.6254 35.5375 40.6254 35.4687L40.6254 34.5312C40.6254 34.4625 40.5692 34.4062 40.5004 34.4062L31.702 34.4062L35.6442 30.9859C35.6988 30.939 35.7301 30.8703 35.7301 30.7968L35.7301 29.5312C35.7301 29.425 35.6051 29.3671 35.5238 29.4375Z" fill="#333333"/>
</g>
</svg>
