<svg width="14" height="14" viewBox="0 0 14 14" fill="none" xmlns="http://www.w3.org/2000/svg">
<path d="M11.1418 8.39778C10.9605 8.57611 10.8772 8.83401 10.9185 9.08694L11.5407 12.5825C11.5932 12.8787 11.47 13.1786 11.2257 13.3498C10.9864 13.5274 10.6679 13.5487 10.4069 13.4066L7.30696 11.7654C7.19917 11.7072 7.07949 11.6759 6.957 11.6724H6.76733C6.70154 11.6823 6.63715 11.7036 6.57835 11.7363L3.47776 13.3853C3.32448 13.4635 3.1509 13.4912 2.98082 13.4635C2.56648 13.3839 2.29001 12.9832 2.3579 12.5604L2.98082 9.06492C3.02212 8.80986 2.93883 8.55054 2.75755 8.36937L0.230183 5.88271C0.0188106 5.67454 -0.0546798 5.36194 0.0419076 5.07988C0.135695 4.79853 0.375064 4.5932 0.664126 4.54702L4.14267 4.03477C4.40724 4.00706 4.63961 3.84366 4.75859 3.6021L6.29139 0.412074C6.32779 0.341027 6.37468 0.275663 6.43137 0.220246L6.49436 0.170513C6.52726 0.133569 6.56506 0.103019 6.60705 0.078152L6.68334 0.0497331L6.80232 0H7.09699C7.36015 0.0277084 7.59182 0.187565 7.7129 0.426284L9.266 3.6021C9.37799 3.83442 9.59566 3.9957 9.84693 4.03477L13.3255 4.54702C13.6194 4.58965 13.8651 4.79569 13.9624 5.07988C14.0541 5.36478 13.975 5.67739 13.7594 5.88271L11.1418 8.39778Z" fill="#F1DA0C"/>
</svg>
