<svg width="12" height="12" viewBox="0 0 12 12" fill="none" xmlns="http://www.w3.org/2000/svg">
<path d="M5.47615 11.5625L11.4527 6.37658C11.5068 6.3297 11.5502 6.27175 11.5799 6.20664C11.6096 6.14154 11.625 6.0708 11.625 5.99923C11.625 5.92766 11.6096 5.85693 11.5799 5.79183C11.5502 5.72672 11.5068 5.66877 11.4527 5.62189L5.47615 0.437515C5.45814 0.421849 5.436 0.411691 5.41237 0.408251C5.38875 0.404811 5.36463 0.408235 5.3429 0.418114C5.32117 0.427993 5.30273 0.443911 5.28979 0.463972C5.27685 0.484033 5.26994 0.507391 5.2699 0.531265L5.2699 1.79689C5.2699 1.86876 5.30115 1.93751 5.35584 1.98595L9.29803 5.40626L0.499589 5.40626C0.430838 5.40626 0.374589 5.46251 0.374589 5.53126L0.374589 6.46876C0.374589 6.53751 0.430838 6.59376 0.499589 6.59376L9.29803 6.59376L5.35584 10.0141C5.30115 10.061 5.2699 10.1297 5.2699 10.2031L5.2699 11.4688C5.2699 11.575 5.3949 11.6328 5.47615 11.5625Z" fill="#333333"/>
</svg>
