<svg width="22" height="22" viewBox="0 0 22 22" fill="none" xmlns="http://www.w3.org/2000/svg">
<path d="M14.6663 6.41667C14.6663 7.38913 14.28 8.32176 13.5924 9.00939C12.9048 9.69703 11.9721 10.0833 10.9997 10.0833C10.0272 10.0833 9.09458 9.69703 8.40695 9.00939C7.71932 8.32176 7.33301 7.38913 7.33301 6.41667C7.33301 5.44421 7.71932 4.51158 8.40695 3.82394C9.09458 3.13631 10.0272 2.75 10.9997 2.75C11.9721 2.75 12.9048 3.13631 13.5924 3.82394C14.28 4.51158 14.6663 5.44421 14.6663 6.41667V6.41667Z" stroke="#333333" stroke-width="2" stroke-linecap="round" stroke-linejoin="round"/>
<path d="M10.9997 12.8333C9.29787 12.8333 7.66576 13.5093 6.46241 14.7127C5.25905 15.916 4.58301 17.5481 4.58301 19.2499H17.4163C17.4163 17.5481 16.7403 15.916 15.5369 14.7127C14.3336 13.5093 12.7015 12.8333 10.9997 12.8333V12.8333Z" stroke="#333333" stroke-width="2" stroke-linecap="round" stroke-linejoin="round"/>
</svg>
