<svg width="34" height="24" viewBox="0 0 34 24" fill="none" xmlns="http://www.w3.org/2000/svg">
<path d="M19.4336 16.7764H14.5664V8.02942H19.4337L19.4336 16.7764Z" fill="#BDBDBD"/>
<path d="M14.8752 12.4024C14.8752 10.6281 15.706 9.04754 16.9996 8.02895C16.0204 7.2568 14.8092 6.83772 13.5621 6.83957C10.4902 6.83957 8 9.33011 8 12.4024C8 15.4748 10.4902 17.9653 13.5621 17.9653C14.8092 17.9672 16.0205 17.5481 16.9997 16.7759C15.7061 15.7575 14.8752 14.1768 14.8752 12.4024Z" fill="#4F4F4F"/>
<path d="M26.0001 12.403C26.0001 15.4753 23.51 17.9659 20.438 17.9659C19.1908 17.9677 17.9795 17.5486 17 16.7765C18.294 15.7579 19.1248 14.1774 19.1248 12.403C19.1248 10.6286 18.294 9.0481 17 8.02951C17.9794 7.25738 19.1907 6.83831 20.4379 6.84012C23.5099 6.84012 26 9.33067 26 12.403" fill="#4F4F4F"/>
<rect x="0.25" y="1.08956" width="33.5" height="22.6263" rx="3.75" stroke="black" stroke-width="0.5"/>
</svg>
